<svg width="28" height="28" viewBox="0 0 28 28" fill="none" xmlns="http://www.w3.org/2000/svg">
<path d="M4.375 9.75H23.627C23.7248 9.74979 23.8218 9.7692 23.9121 9.80664C24.0025 9.84417 24.0853 9.89927 24.1543 9.96875L24.1582 9.97266C24.2272 10.0413 24.2821 10.123 24.3193 10.2129C24.3566 10.3029 24.3753 10.3997 24.375 10.4971V22.3809C24.3745 22.7588 24.2973 23.1331 24.1484 23.4805C24.0366 23.7411 23.8859 23.9826 23.7021 24.1973L23.5078 24.4023L23.499 24.4111C22.9478 24.9492 22.2078 25.2502 21.4375 25.25H6.5625C4.98197 25.25 3.625 23.893 3.625 22.3125V10.5C3.625 10.3011 3.70407 10.1104 3.84473 9.96973C3.98538 9.82907 4.17609 9.75 4.375 9.75Z" stroke="black" stroke-width="2"/>
</svg>
